<?xml version="1.0" encoding="iso-8859-1"?>
<!-- Generator: Adobe Illustrator 19.0.0, SVG Export Plug-In . SVG Version: 6.00 Build 0)  -->
<svg version="1.1" id="Capa_1" xmlns="http://www.w3.org/2000/svg" xmlns:xlink="http://www.w3.org/1999/xlink" x="0px" y="0px"
	 viewBox="0 0 512 512" style="enable-background:new 0 0 512 512;" xml:space="preserve">
<g>
	<g>
		<g>
			<path d="M477.327,286.782c1.466-10.099,2.205-20.368,2.205-30.782c0-47.858-38.936-86.793-86.793-86.793
				c-47.858,0-86.794,38.936-86.794,86.793v16.486c-19.38,4.603-35.734,18.224-43.589,36.738l-7.583,17.873
				c-7.6,17.913,0.791,38.669,18.703,46.269c4.504,1.911,9.212,2.84,13.867,2.84c0.702,0,1.402-0.028,2.1-0.07
				c-10.766,13.84-26.107,24.012-43.944,28.178c-9.677-26.789-35.114-44.956-64.146-44.956h-32.021
				c-8.588,0-15.574,6.987-15.574,15.575c0,26.441,15.116,49.419,37.158,60.746c-22.042,11.327-37.158,34.305-37.158,60.746
				c0,8.588,6.986,15.575,15.574,15.575h32.021c29.449,0,55.156-18.64,64.53-46.028l13.617,0.599
				c3.105,0.137,6.205,0.205,9.306,0.205c34.605-0.001,68.688-8.482,99.106-24.734c3.653-1.952,5.033-6.496,3.081-10.149
				c-1.951-3.653-6.495-5.034-10.149-3.081c-30.773,16.442-65.589,24.316-100.686,22.774l-19.488-0.857
				c-0.025-0.001-0.049-0.003-0.074-0.003l-1.063-0.047c-8.049-0.354-14.355-6.942-14.355-15c0-7.618,5.706-14.029,13.273-14.912
				c0.96-0.112,1.908-0.261,2.858-0.402c0.03-0.004,0.059-0.008,0.089-0.013c33.437-4.977,60.631-27.39,72.737-57.299
				c0.013-0.033,0.028-0.065,0.04-0.098c4.361-10.81,6.768-22.585,6.768-34.875v-39.768c4.703,1.39,9.277,1.97,13.706,1.97
				c12.571,0,23.981-4.671,33.898-8.731c0.225-0.092,0.443-0.181,0.667-0.272c-0.119,6.138-0.397,12.343-0.916,18.466
				c-1.48,17.517-4.748,32.391-9.99,45.471c-5.644,14.073-14.01,26.701-24.901,37.568c-9.976,10.085-22.656,19.091-38.749,27.523
				l-0.181,0.094c-7.194,3.794-10.322,12.629-7.119,20.113c2.553,5.966,8.38,9.547,14.493,9.547c2.063,0,4.158-0.408,6.172-1.269
				c19.889-8.512,36.102-18.288,49.544-29.87c7.717-6.601,14.721-13.907,20.813-21.709c6.151-7.866,11.582-16.499,16.147-25.672
				c8.1-16.341,13.755-34.764,17.289-56.321c1.396-8.511,2.368-16.905,3.095-25.134c1.185,0.477,2.383,0.965,3.602,1.464
				c10.317,4.224,21.515,8.809,33.833,8.809c3.049,0,6.172-0.302,9.363-0.939c0,0.002,0,0.004,0,0.007
				c-3.277,19.169-9.399,37.651-18.341,55.225c-13.369,26.273-32.901,49.607-56.483,67.478c-3.302,2.502-3.95,7.206-1.448,10.507
				c2.502,3.301,7.204,3.949,10.508,1.448c15.514-11.757,29.388-25.72,41.127-41.253c5.524,5.859,12.972,9.796,21.135,10.859
				c1.539,0.201,3.067,0.298,4.58,0.298c17.448,0,32.657-12.98,34.97-30.736L500.264,344
				C503.125,322.031,494.395,300.538,477.327,286.782z M210.18,435.679c0,13.199,8.467,24.421,20.378,28.434
				C222.455,483.815,203.231,497,181.355,497h-32.021c-0.316,0-0.574-0.258-0.574-0.575c0-29.36,23.886-53.246,53.245-53.246
				c4.143,0,7.5-3.358,7.5-7.5c0-4.142-3.357-7.5-7.5-7.5c-29.359,0-53.245-23.886-53.245-53.246c0-0.316,0.258-0.574,0.574-0.574
				h32.021c21.858,0,41.104,13.196,49.209,32.898C218.601,411.302,210.18,422.597,210.18,435.679z M305.945,328.081
				c0,9.791-1.814,19.196-5.128,27.886c-5.858,5.278-14.142,6.705-21.481,3.591c-10.299-4.37-15.123-16.303-10.754-26.602
				l7.583-17.873c5.513-12.995,16.53-22.813,29.78-27.027V328.081z M401.751,249.029l-0.002,0.044
				c-0.001,0.013-0.002,0.027-0.002,0.04c-0.662,16.934-1.692,35.157-4.732,53.682c-3.289,20.065-8.499,37.103-15.921,52.076
				c-4.11,8.259-8.999,16.033-14.532,23.109c-5.48,7.018-11.786,13.594-18.764,19.563c-12.28,10.58-27.221,19.563-45.675,27.46
				c-0.374,0.164-0.813-0.013-0.974-0.39c-0.169-0.394,0.034-0.789,0.29-0.925l0.162-0.084
				c17.501-9.169,31.393-19.071,42.436-30.236c12.304-12.275,21.79-26.598,28.195-42.57c5.804-14.482,9.407-30.768,11.015-49.787
				c1.521-17.949,1.098-36.309,0.483-51.902c-0.095-2.406,0.752-4.705,2.387-6.473c1.634-1.768,3.859-2.794,6.266-2.89
				c0.12-0.005,0.239-0.007,0.359-0.007c4.808,0,8.813,3.814,9.004,8.658C401.756,248.633,401.756,248.867,401.751,249.029z
				 M424.199,267.671c-2.673-1.094-5.403-2.2-8.159-3.237c0.283-4.997,0.507-9.915,0.695-14.721c0.001-0.029,0.003-0.07,0.003-0.086
				c0.021-0.608,0.021-1.219-0.003-1.819c-0.523-13.23-11.705-23.578-24.943-23.049c-6.41,0.253-12.337,2.987-16.69,7.698
				c-4.353,4.711-6.612,10.836-6.358,17.245c0.193,4.9,0.366,10.079,0.463,15.422c-2.138,0.832-4.26,1.696-6.339,2.547
				c-14.559,5.961-27.289,11.161-41.922,4.689V256c0-39.587,32.207-71.793,71.794-71.793c39.587,0,71.793,32.207,71.793,71.793
				c0,5.815-0.249,11.58-0.741,17.292C450.04,278.241,437.456,273.099,424.199,267.671z M485.39,342.065l-2.507,19.253
				c-0.699,5.374-3.45,10.154-7.745,13.459c-4.294,3.305-9.615,4.742-14.994,4.04c-5.865-0.763-10.942-3.942-14.165-8.719
				c3.902-6.035,7.509-12.252,10.76-18.642c7.7-15.132,13.456-30.886,17.263-47.14C482.928,314.549,487.197,328.182,485.39,342.065z
				"/>
			<path d="M439.129,219.262c-4.142,0-7.5,3.358-7.5,7.5v7.569c0,4.142,3.358,7.5,7.5,7.5c4.143,0,7.5-3.358,7.5-7.5v-7.569
				C446.629,222.62,443.272,219.262,439.129,219.262z"/>
			<path d="M72.873,270.169c-4.143,0-7.5,3.358-7.5,7.5v7.569c0,4.142,3.357,7.5,7.5,7.5s7.5-3.358,7.5-7.5v-7.569
				C80.373,273.527,77.016,270.169,72.873,270.169z"/>
			<path d="M347.936,219.262c-4.142,0-7.5,3.358-7.5,7.5v7.569c0,4.142,3.358,7.5,7.5,7.5c4.143,0,7.5-3.358,7.5-7.5v-7.569
				C355.436,222.62,352.079,219.262,347.936,219.262z"/>
			<path d="M206.057,256v-16.486c19.381-4.602,35.734-18.225,43.589-36.738l7.583-17.873c7.6-17.913-0.791-38.669-18.703-46.269
				c-5.184-2.199-10.639-3.086-15.972-2.764c10.766-13.843,26.109-24.018,43.949-28.185c9.677,26.789,35.114,44.956,64.146,44.956
				h32.021c8.588,0,15.574-6.987,15.574-15.575c0-26.441-15.116-49.418-37.158-60.746c22.042-11.327,37.158-34.305,37.158-60.746
				C378.243,6.987,371.257,0,362.669,0h-32.021c-29.45,0-55.156,18.64-64.53,46.028l-13.617-0.599
				c-37.764-1.661-75.269,6.821-108.412,24.529c-3.653,1.952-5.033,6.496-3.081,10.149c1.952,3.654,6.497,5.034,10.149,3.081
				c30.772-16.441,65.591-24.313,100.686-22.774l19.513,0.858c0.01,0,0.019,0.001,0.029,0.001l1.084,0.048
				c8.049,0.354,14.354,6.942,14.354,14.999c0,7.618-5.706,14.029-13.272,14.912c-0.958,0.112-1.903,0.26-2.85,0.4
				c-0.035,0.005-0.069,0.009-0.104,0.015c-33.434,4.979-60.625,27.391-72.73,57.298c-0.013,0.033-0.028,0.065-0.04,0.098
				c-4.361,10.81-6.769,22.585-6.769,34.875v39.779c-18.053-5.336-34.193,1.259-47.604,6.749c-0.225,0.092-0.443,0.181-0.667,0.272
				c0.119-6.138,0.397-12.343,0.916-18.466c1.48-17.517,4.748-32.391,9.99-45.471c5.644-14.073,14.01-26.701,24.901-37.568
				c9.976-10.086,22.656-19.091,38.749-27.523l0.181-0.094c7.194-3.795,10.322-12.629,7.119-20.113
				c-3.414-7.979-12.684-11.694-20.665-8.278c-19.889,8.512-36.102,18.288-49.544,29.87c-7.717,6.601-14.721,13.907-20.813,21.708
				c-6.151,7.866-11.582,16.499-16.147,25.672c-8.1,16.341-13.755,34.764-17.289,56.321c-1.396,8.511-2.368,16.905-3.095,25.134
				c-1.186-0.477-2.383-0.965-3.602-1.464c-12.872-5.269-27.119-11.091-43.195-7.881c3.277-19.168,9.399-37.648,18.341-55.221
				c13.367-26.271,32.899-49.604,56.481-67.475c3.302-2.502,3.95-7.206,1.448-10.507c-2.503-3.302-7.205-3.949-10.508-1.448
				c-15.514,11.757-29.388,25.72-41.127,41.252c-5.524-5.859-12.972-9.796-21.135-10.858c-19.289-2.515-37.037,11.142-39.55,30.437
				l-2.507,19.253c-2.86,21.971,5.87,43.464,22.938,57.219c-1.466,10.099-2.205,20.368-2.205,30.782
				c0,47.858,38.935,86.794,86.793,86.794C167.121,342.794,206.057,303.858,206.057,256z M301.822,76.321
				c0-13.199-8.467-24.42-20.378-28.434C289.547,28.185,308.771,15,330.648,15h32.021c0.316,0,0.574,0.258,0.574,0.575
				c0,29.36-23.886,53.246-53.245,53.246c-4.143,0-7.5,3.358-7.5,7.5c0,4.142,3.357,7.5,7.5,7.5
				c29.359,0,53.245,23.886,53.245,53.246c0,0.317-0.258,0.575-0.574,0.575h-32.021c-21.858,0-41.104-13.196-49.209-32.898
				C293.401,100.698,301.822,89.403,301.822,76.321z M206.057,183.919c0-9.791,1.814-19.196,5.128-27.886
				c5.857-5.278,14.142-6.705,21.481-3.591c10.299,4.37,15.123,16.303,10.754,26.602l-7.583,17.873
				c-5.513,12.995-16.53,22.813-29.78,27.028V183.919z M110.251,262.971l0.002-0.044c0.001-0.013,0.002-0.027,0.002-0.04
				c0.662-16.934,1.692-35.157,4.731-53.682c3.289-20.064,8.499-37.103,15.921-52.076c4.11-8.259,8.999-16.033,14.532-23.109
				c5.48-7.018,11.786-13.594,18.764-19.563c12.28-10.58,27.221-19.563,45.675-27.46c0.095-0.041,0.193-0.06,0.291-0.06
				c0.288,0,0.563,0.169,0.683,0.45c0.169,0.394-0.034,0.789-0.29,0.925l-0.162,0.084c-17.501,9.169-31.394,19.071-42.436,30.236
				c-12.304,12.275-21.79,26.598-28.195,42.57c-5.804,14.482-9.407,30.768-11.015,49.787c-1.521,17.949-1.098,36.309-0.483,51.902
				c0.095,2.406-0.752,4.705-2.387,6.473c-1.634,1.768-3.859,2.794-6.266,2.89c-4.952,0.193-9.167-3.685-9.363-8.651
				C110.246,263.367,110.246,263.133,110.251,262.971z M26.612,169.935l2.507-19.253c1.443-11.093,11.627-18.947,22.739-17.499
				c5.865,0.763,10.942,3.942,14.165,8.719c-3.902,6.035-7.509,12.252-10.76,18.642c-7.7,15.132-13.456,30.886-17.263,47.14
				C29.074,197.451,24.805,183.818,26.612,169.935z M119.263,327.794c-39.587,0-71.793-32.207-71.793-71.794
				c0-5.815,0.249-11.58,0.741-17.292c13.751-4.949,26.335,0.193,39.592,5.621c2.673,1.094,5.403,2.2,8.159,3.237
				c-0.283,4.997-0.507,9.915-0.695,14.721c-0.001,0.029-0.003,0.07-0.003,0.086c-0.021,0.608-0.021,1.219,0.003,1.819
				c0.511,12.91,11.177,23.068,23.985,23.068c0.317,0,0.638-0.006,0.958-0.019c6.41-0.253,12.337-2.987,16.69-7.698
				c4.354-4.711,6.612-10.836,6.358-17.245c-0.193-4.9-0.366-10.079-0.463-15.422c2.138-0.832,4.26-1.696,6.339-2.547
				c14.559-5.96,27.289-11.161,41.922-4.689V256C191.057,295.587,158.85,327.794,119.263,327.794z"/>
			<path d="M164.065,270.169c-4.143,0-7.5,3.358-7.5,7.5v7.569c0,4.142,3.357,7.5,7.5,7.5s7.5-3.358,7.5-7.5v-7.569
				C171.565,273.527,168.208,270.169,164.065,270.169z"/>
		</g>
	</g>
</g>
<g>
</g>
<g>
</g>
<g>
</g>
<g>
</g>
<g>
</g>
<g>
</g>
<g>
</g>
<g>
</g>
<g>
</g>
<g>
</g>
<g>
</g>
<g>
</g>
<g>
</g>
<g>
</g>
<g>
</g>
</svg>
