<svg height="512" viewBox="0 0 60 60" width="512" xmlns="http://www.w3.org/2000/svg"><g id="029---Koi-Carp"><path id="Shape" d="m56.78.44c-1.67 1.33-4.54 4.56-5.47 7.47-1.8-1.61-2.82-4.91-3.55-6.66-.2959217-.73148072-.99427-1.22059608-1.7828415-1.24868218-.7885714-.02808611-1.5199472.41010757-1.8671585 1.11868218-4 8-2.44 12.71 1.09 17.4 3 4 2.63 5.44 1.81 8.18-.9057672 1.364203-2.0114535 2.5845031-3.28 3.62l.78-2.68c.2064672-.6112762.1053599-1.2846123-.2715309-1.8082921-.3768908-.5236799-.983268-.8333748-1.6284691-.8317079h-2.86c-1.5124376-.0134966-2.7983938 1.1009988-3 2.6l-.63 5.4c-4.1833202-.0751631-8.3653642.2092159-12.5.85.8733338-1.0952816 1.3586781-2.4493219 1.38-3.85v-6c.0019829-.6660778-.3277629-1.2894322-.879494-1.662603-.551731-.3731708-1.2530338-.4471802-1.870506-.197397-1.91.77-5.52 2.89-7.09 5.31s-1.46 6.65-1.23 9c-5.93 2.43-15.06 10.35-13.81 15.74 1.48 6.4 15.87 4.25 22.29 3 2.27 4.81 5.8 4.81 10.59 4.81 1.8762058.0502832 3.7512029-.1378886 5.58-.56.6047093-.1773323 1.0904731-.6292979 1.3108794-1.2196717.2204062-.5903738.1496733-1.2500982-.1908794-1.7803283-.6402538-.8591562-1.3637625-1.6530061-2.16-2.37-.9492502-1.0847045-2.0920292-1.9833289-3.37-2.65 4.8640361-2.0634124 9.1041966-5.3624641 12.3-9.57l7.94-1.77c1.0533392-.2073 1.7551333-1.2092324 1.59-2.27l-.72-3.51c-.1079712-.6529229-.5319341-1.2101604-1.1324019-1.4883771-.6004678-.2782168-1.2996828-.2413851-1.8675981.0983771l-1.68 1c.3-1.05 1.4-4.65 1.4-4.7.216949-.1530181.4209678-.3235912.61-.51 3.39-3.36 7.39-8.12 7.39-11.7v-15c-.0093516-.75759899-.4459983-1.44487086-1.1278493-1.77520858-.6818509-.33033771-1.4918269-.24701972-2.0921507.21520858zm1.22 1.56v10.34c-1.5698256-1.2079998-3.2429509-2.2754538-5-3.19.44-2.27 3.12-5.64 5-7.15zm-18.25 25h2.85l-1.44 5c-.944184.4695477-1.9566935.7868007-3 .94l.64-5.06c.058341-.4864453.4605194-.8589895.95-.88zm-11.07 11.06c-3.67 1.22-5.76-1.13-10.13 1-1.3784798.4496146-2.8914396.1545875-4-.78.34-.14.66-.27 1-.38 5.1068981-1.7148405 10.4359447-2.6782459 15.82-2.86.27 1.57-1.22 2.53-2.69 3.02zm-11.84-9.51c1.23-1.91 4.4-3.84 6.16-4.54v6c0 1.73-1.25 3.46-3.35 4.66-1.22.3-2.48.66-3.77 1.07-.21-2.63-.05-5.63.96-7.19zm-7.84 14.96c-.00482078.6810611-.46788342 1.2733923-1.12764823 1.4424423-.6597648.1690501-1.35061345-.1276169-1.68235177-.7224423.68-.67 1.41-1.33 2.17-1.95.40139703.2808836.64033198.7400867.64 1.23zm2.32 9.65c.4046841-.601442 1.1835038-.824354 1.8451225-.5281069.6616187.2962472 1.0140175 1.0256751.8348775 1.7281069-1 .09-2 .15-2.89.17-.1560952-.4637191-.0778268-.9743274.21-1.37zm8.74.39c.0079458-1.2250323.4878965-2.399837 1.34-3.28.6977574-.4635049 1.5755864-.5639345 2.36-.27 2.61.65 4-.74 6.69-2.08.823123-.5176805 1.8419117-.617707 2.75-.27.5125117.4318996.8057979 1.0697972.8 1.74-4.4371115 2.010817-9.1265586 3.4102502-13.94 4.16zm15.23 1.16c.9540154.8899457 1.8586969 1.8313486 2.71 2.82-1.640932.3621016-3.3203337.5199654-5 .47-4.57 0-6.88 0-8.58-3.3 2.2794361-.5261788 4.523801-1.1941445 6.72-2 1.5958432.0904714 3.0896227.8139647 4.15 2.01zm5.61-9.71c-.21-2.21-.36-3.47 1-5.43.41-.61 1.9-1.31 4.73-1.51-1.4658452 2.6467848-3.4085082 4.9996785-5.73 6.94zm12.36-10.34.74 3.51-6 1.33c.48-.84.9-1.66 1.27-2.46zm-5.67 1.34c-3.77.09-6.4.95-7.4 2.45-2.09 3.13-1.3 5.2-1.21 8-1.0011693.7101578-2.0429413 1.3612653-3.12 1.95-.66-3.12-3.55-3.71-6.31-2.33s-3.55 2.39-5.31 1.93c-3.91-1-6 1.76-6.21 5.83-.9.13-.51.09-2 .27.0206702-1.5032029-.9209066-2.8516977-2.3392144-3.3501445-1.4183077-.4984469-2.9964961-.0354925-3.9207856 1.1501445-.60036454.7372031-.87797695 1.6854117-.77 2.63-4.11-.13-6.58-1.07-7-2.79s.82-3.82 2.73-6c1.30891486 1.4552703 3.54972968 1.5739149 5.005.265 1.4552703-1.3089149 1.5739149-3.5497297.265-5.005.8680096-.6343386 1.7692944-1.2218428 2.7-1.76 1.2023563 1.3309484 2.9164335 2.084269 4.71 2.07 2.76 0 2.21-1.59 6.94-1.06 1.6687284.286369 3.3813917.1767586 5-.32 2.37-.79 4.31-2.44 4-4.93h3.74c4.31 0 8.08-2.78 10.47-5.67.5895915.4873756 1.3483603.7211195 2.11.65-.5524538 2.0526079-1.2474754 4.0641608-2.08 6.02zm3.59-8.73c-.4949755.5148968-1.1995251.7731086-1.91.7-.29 0-.4-.12-.41-.14s-.08-.16.09-.67c1.1-3.29 1.06-5.61-2.15-9.87s-4.45-8.18-.89-15.29c.11.26.23.57.36.92 2.2 5.82 3.32 6.57 7.5 9 2.86 1.62 4.23 2.52 4.23 5.08 0 2.23-2.49 6-6.82 10.29z"/><path id="Shape" d="m35.49 40.15c-4.65 2.79-8.9.94-17.9 4.94-.4274182.1947244-.6617191.6606653-.5631423 1.1198892.0985769.4592238.5034623.7879572.9731423.7901108.94 0 2.69-1.81 11-2.94 2.6361985-.1708988 5.2014237-.9257786 7.51-2.21.3609297-.1487736.6022843-.4939823.6180897-.8840516s-.1968285-.7536733-.5445384-.9311606c-.3477098-.1774873-.7669152-.1364035-1.0735513.1052122z"/></g></svg>