<?xml version="1.0" encoding="iso-8859-1"?>
<!-- Generator: Adobe Illustrator 19.0.0, SVG Export Plug-In . SVG Version: 6.00 Build 0)  -->
<svg version="1.1" id="Capa_1" xmlns="http://www.w3.org/2000/svg" xmlns:xlink="http://www.w3.org/1999/xlink" x="0px" y="0px"
	 viewBox="0 0 208.213 208.213" style="enable-background:new 0 0 208.213 208.213;" xml:space="preserve">
<g>
	<g>
		<path d="M98.082,182.171l-6.816,0.353l0.804,15.449H10.513l7.248-139.401C24.54,55.468,30.81,52.335,30.81,40.96
			c0-8.648-3.736-23.243-10.54-29.37l0.422-4.763H29.3c5.074,4.297,13.157,6.827,21.99,6.827c8.832,0,16.915-2.531,21.99-6.827
			h8.608l0.42,4.762c-6.806,6.127-10.54,20.722-10.54,29.37c0,11.648,6.578,14.655,13.539,17.836l1.377,0.631l0.763-1.645
			l4.154-0.215l-0.179-3.47l-3.275-1.51c-6.755-3.087-9.55-4.364-9.55-11.628c0-8.617,4.203-21.816,9.11-24.936l1.751-1.113
			L88.139,0H70.56l-0.997,0.983C65.908,4.588,58.907,6.827,51.29,6.827c-7.619,0-14.619-2.239-18.273-5.844L32.021,0H14.442
			l-1.318,14.911l1.751,1.113c4.907,3.12,9.11,16.317,9.11,24.936c0,7.262-2.796,8.538-9.551,11.628l-3.275,1.51L3.323,204.8H99.26
			L98.082,182.171z"/>
	</g>
</g>
<g>
	<g>
		<rect x="37.632" y="40.96" width="37.547" height="6.827"/>
	</g>
</g>
<g>
	<g>
		<path d="M187.82,54.552h-50.197c-0.995,0-1.942,0.427-2.603,1.174c-0.659,0.746-0.966,1.739-0.845,2.727
			c0.109,0.865,0.159,1.579,0.159,2.244c0,9.868-8.028,17.896-17.896,17.896c-9.868,0-17.896-8.028-17.896-17.896
			c0-0.667,0.051-1.379,0.159-2.239c0.123-0.988-0.183-1.983-0.841-2.731c-0.659-0.746-1.608-1.174-2.604-1.174H41.05
			c-1.918,0-3.473,1.555-3.473,3.473v29.385c0,1.574,1.056,2.951,2.579,3.357l24.728,6.596v83.541c0,1.918,1.555,3.473,3.473,3.473
			h60.587c1.918,0,3.47-1.556,3.47-3.475c0-1.918-1.555-3.473-3.473-3.473H71.827V94.694c0-1.574-1.056-2.951-2.579-3.357
			L44.52,84.741V61.498h47.085c0.425,13.331,11.402,24.042,24.832,24.042c13.43,0,24.407-10.711,24.832-24.042h43.078v23.34
			l-21.434,6.533c-1.461,0.445-2.459,1.794-2.459,3.323v33.585c0,1.918,1.555,3.473,3.473,3.473c1.918,0,3.473-1.555,3.473-3.473
			V97.266l21.434-6.533c1.461-0.445,2.459-1.794,2.459-3.323V58.025C191.293,56.107,189.739,54.552,187.82,54.552z"/>
	</g>
</g>
<g>
	<g>
		<path d="M68.357,78.655c-1.884,0-3.413,1.529-3.413,3.413v29.385c0,1.884,1.529,3.413,3.413,3.413
			c1.886,0,3.413-1.529,3.413-3.413V82.068C71.77,80.184,70.241,78.655,68.357,78.655z"/>
	</g>
</g>
<g>
	<g>
		<path d="M163.93,78.655c-1.884,0-3.413,1.529-3.413,3.413v29.385c0,1.884,1.529,3.413,3.413,3.413
			c1.886,0,3.413-1.529,3.413-3.413V82.068C167.344,80.184,165.815,78.655,163.93,78.655z"/>
	</g>
</g>
<g>
	<g>
		<path d="M163.93,126.293c-22.584,0-40.96,18.376-40.96,40.96c0,22.584,18.376,40.96,40.96,40.96
			c22.586,0,40.96-18.376,40.96-40.96C204.891,144.669,186.515,126.293,163.93,126.293z M163.93,201.387
			c-18.821,0-34.133-15.312-34.133-34.133s15.312-34.133,34.133-34.133c18.823,0,34.133,15.312,34.133,34.133
			S182.752,201.387,163.93,201.387z"/>
	</g>
</g>
<g>
	<g>
		<path d="M187.416,157.599c-1.07-5.895-4.103-10.1-8.542-11.843c-4.57-1.789-9.926-0.577-14.763,3.234
			c-4.838-3.813-10.191-5.028-14.764-3.232c-8.701,3.413-11.527,16.259-6.434,29.242c4.367,11.127,15.78,17.41,20.941,17.801
			c0.085,0.007,0.171,0.01,0.258,0.01c0.085,0,0.171-0.003,0.258-0.012c5.163-0.391,16.573-6.673,20.941-17.8
			C187.631,169.081,188.378,162.9,187.416,157.599z M178.951,172.506c-3.319,8.465-12.131,13-14.841,13.454
			c-2.71-0.454-11.522-4.989-14.841-13.454c-3.884-9.9-1.763-18.693,2.569-20.393c0.594-0.234,1.232-0.346,1.905-0.346
			c2.417,0,5.253,1.473,7.936,4.195c1.283,1.3,3.577,1.3,4.861,0c3.432-3.478,7.107-4.925,9.841-3.85
			c2.905,1.14,3.953,4.69,4.318,6.706C181.425,162.831,180.789,167.822,178.951,172.506z"/>
	</g>
</g>
<g>
</g>
<g>
</g>
<g>
</g>
<g>
</g>
<g>
</g>
<g>
</g>
<g>
</g>
<g>
</g>
<g>
</g>
<g>
</g>
<g>
</g>
<g>
</g>
<g>
</g>
<g>
</g>
<g>
</g>
</svg>
